# xmcd CD database file
#
# Track frame offsets:
#	150
#	12487
#	24020
#	34635
#	47797
#	61060
#	72955
#	84030
#	97105
#	110832
#	122152
#	133695
#	146495
#	158477
#	169255
#	182145
#	195115
#	207870
#	218212
#	229457
#	243242
#	255782
#	268815
#	281297
#	292927
#	305835
#	319145
#	330402
#
# Disc length: 4577 seconds
#
# Revision: 0
# Processed by: cddbd v1.5.1PL0 Copyright (c) Steve Scherf et al.
# Submitted via: CDex 1.51
#
DISCID=8711df1c
DTITLE=Bob Wills and His Texas Playboys - Faded Love 1947 - 1973 [CD02)
DYEAR=2005
DGENRE=Western Swing
TTITLE0=Boot Heel Drag
TTITLE1=Nothing But Trouble
TTITLE2=Anything
TTITLE3=Bob Wills' Square Dance #I
TTITLE4=Bob Wills' Square Dance #II
TTITLE5=A King Without A Queen
TTITLE6=Hold Your Tears
TTITLE7=Bob Wills' Square Dance #III
TTITLE8=Bob Wills' Square Dance #IV
TTITLE9=When It's Christmas On The Range
TTITLE10=Santa's On His Way
TTITLE11=Mean Woman With Green Eyes
TTITLE12=My Little Rock Candy Baby
TTITLE13=Jolie Blond Likes The Boogie
TTITLE14=Pastime Blues
TTITLE15=Faded Love
TTITLE16=Awake But Dreaming
TTITLE17=I Betcha My Heart I Love You
TTITLE18=I Laugh When I Think How I Cried Over You
TTITLE19=I'll Be Lucky Some Day
TTITLE20=I Didn't Realize
TTITLE21=Rock-A-Bye Baby Blues
TTITLE22=I'm Dotting Each "I" With A Teardrop
TTITLE23=The End Of The Line
TTITLE24='Tater Pie
TTITLE25=Little Girl, Little Girl
TTITLE26=I'm Tired Of Living This Lie
TTITLE27=Pliney Jane
EXTD=YEAR: 2005
EXTT0=
EXTT1=
EXTT2=
EXTT3=
EXTT4=
EXTT5=
EXTT6=
EXTT7=
EXTT8=
EXTT9=
EXTT10=
EXTT11=
EXTT12=
EXTT13=
EXTT14=
EXTT15=
EXTT16=
EXTT17=
EXTT18=
EXTT19=
EXTT20=
EXTT21=
EXTT22=
EXTT23=
EXTT24=
EXTT25=
EXTT26=
EXTT27=
PLAYORDER=
